<?xml version="1.0" ?><!DOCTYPE svg  PUBLIC '-//W3C//DTD SVG 1.1//EN'  'http://www.w3.org/Graphics/SVG/1.1/DTD/svg11.dtd'><svg enable-background="new 0 0 48 48" height="48px" id="Layer_1" version="1.1" viewBox="0 0 48 48" width="48px" xml:space="preserve" xmlns="http://www.w3.org/2000/svg" xmlns:xlink="http://www.w3.org/1999/xlink"><g id="Layer_4"/><g id="Layer_3"/><g id="Layer_5"><g><path d="M22.457,18.198h-2.522v4.926h2.578c0.237-0.004,1.198-0.074,1.801-0.897    c0.692-0.946,0.474-2.186,0.28-2.791C24.398,18.829,23.572,18.198,22.457,18.198z" fill="#241F20"/><path d="M29.299,26.823c0.559,0.886,1.385,0.936,2.402,0.741c1.018-0.195,1.554-1.48,1.554-1.48v-1.116    c0,0-2.571,0.099-3.252,0.341C29.323,25.55,29.008,26.352,29.299,26.823z" fill="#241F20"/><polygon fill="#241F20" points="33.659,21.335 33.705,21.396 33.691,21.353   "/><path d="M0,9v4v22v4h48v-4V13V9H0z M11.465,15.48c0.098,1.796-1.023,3.032-2.695,3.154    C8.77,18.635,8.311,16.088,11.465,15.48z M13.236,27.709c-0.311,0.521-0.556,0.803-0.556,0.803h-0.009    c-0.339,0.396-0.836,0.652-1.399,0.652c-0.084,0-0.164-0.014-0.245-0.023l-0.001,0.006c0,0-0.02-0.006-0.027-0.01    c-0.187-0.027-0.363-0.08-0.528-0.162c-0.489-0.145-1.183-0.328-1.58-0.343c-0.391-0.016-0.846,0.144-1.152,0.272    c-0.102,0.06-0.209,0.109-0.322,0.147c-0.013,0.009-0.027,0.015-0.027,0.015l-0.004-0.004c-0.183,0.061-0.375,0.102-0.579,0.102    c-0.562,0-1.06-0.257-1.397-0.655c-0.002,0.002-0.003,0.003-0.006,0.003c-0.02-0.023-0.033-0.048-0.051-0.07    c-0.035-0.045-0.069-0.092-0.1-0.139C1.98,23.946,3.645,20.68,3.645,20.68h0.002c0.475-1.074,1.546-1.827,2.796-1.827    c0.25,0,0.49,0.039,0.723,0.096l0.002-0.007c0,0,0.044,0.018,0.105,0.041c0.164,0.046,0.323,0.102,0.475,0.174    c0.405,0.143,0.906,0.304,1.123,0.304c0.388,0,1.866-0.611,2.28-0.607c0.021,0,0.033,0.02,0.051,0.025    c0.083-0.007,0.165-0.025,0.25-0.025c1.007,0,1.882,0.515,2.413,1.285c-0.817,0.575-1.355,1.522-1.355,2.599    c0,1.263,0.743,2.345,1.811,2.856C14.1,26.279,13.758,26.99,13.236,27.709z M26.098,23.124c-0.462,0.6-1.354,1.584-3.131,1.681    v0.019h-3.032v4.342h-1.99V16.5h0.995h0.995h2.159c0,0,2.694-0.316,4.174,1.916C27.479,20.309,26.581,22.493,26.098,23.124z     M35.146,29.164h-1.893v-1.527c-0.896,1.625-2.814,1.747-3.688,1.527c-1.506-0.441-1.911-1.309-2.01-1.598    c-0.002-0.002-0.004-0.002-0.006-0.002c-0.004-0.014-0.004-0.024-0.008-0.039c-0.014-0.037-0.018-0.064-0.018-0.064h0.002    c-0.369-1.493-0.047-2.51,1.043-3.172c1.115-0.68,4.684-0.68,4.684-0.68V23.1c-0.066-0.887-0.268-1.273-0.681-1.48    c-0.485-0.243-1.042-0.267-1.916-0.17c-0.874,0.097-1.093,1.189-1.093,1.189H27.77c0.112-1.24,0.856-1.923,1.336-2.243    l-0.002-0.001c0,0,0.057-0.041,0.151-0.097c0.007-0.004,0.015-0.008,0.021-0.012c0.014-0.008,0.024-0.014,0.041-0.021    c0.117-0.065,0.199-0.102,0.199-0.102l0.008,0.001c0.492-0.211,1.436-0.469,2.953-0.316c1.358,0.194,2.306,1.456,2.306,1.456    s0.364,0.558,0.364,1.698V29.164L35.146,29.164z M41.432,29.206c0,0-0.279,1.457-1.152,2.294c-0.874,0.838-1.748,1.02-3.35,1.02    c0-1.037,0-1.602,0-1.602s2.063,0.616,2.414-1.712l-3.349-9.362h2.088l2.329,7.494l2.329-7.494h2.038L41.432,29.206z" fill="#241F20"/></g></g></svg>