<?xml version="1.0" ?><!DOCTYPE svg  PUBLIC '-//W3C//DTD SVG 1.1//EN'  'http://www.w3.org/Graphics/SVG/1.1/DTD/svg11.dtd'><svg height="6.82666in" style="shape-rendering:geometricPrecision; text-rendering:geometricPrecision; image-rendering:optimizeQuality; fill-rule:evenodd; clip-rule:evenodd" viewBox="0 0 6.82666 6.82666" width="6.82666in" xml:space="preserve" xmlns="http://www.w3.org/2000/svg" xmlns:xlink="http://www.w3.org/1999/xlink"><defs><style type="text/css">
   <![CDATA[
    .fil1 {fill:none}
    .fil0 {fill:black}
   ]]>
  </style></defs><g id="Layer_x0020_1"><path class="fil0" d="M1.25706 1.78925l4.31254 0c0.222059,0 0.403732,0.181669 0.403732,0.403728l0 2.44071c0,0.222059 -0.181673,0.403728 -0.403732,0.403728l-4.31254 0c-0.222051,0 -0.403724,-0.181669 -0.403724,-0.403728l0 -2.44071c0,-0.222059 0.181673,-0.403728 0.403724,-0.403728zm0.250051 1.12669l0.395335 0c0.086122,0 0.150583,0.0204094 0.193551,0.0614094 0.0427913,0.0410039 0.0642795,0.099374 0.0642795,0.17511 0,0.0777087 -0.0234567,0.138583 -0.070185,0.182272 -0.0467323,0.0438661 -0.118173,0.0657126 -0.214142,0.0657126l-0.13035 0 0 0.284681 -0.238488 0 0 -0.769185zm0.238488 0.328728l0.0585512 0c0.0461929,0 0.0786024,-0.00805512 0.0972244,-0.0239882 0.018622,-0.015937 0.0279331,-0.0363504 0.0279331,-0.0612362 0,-0.0241732 -0.00805906,-0.0445827 -0.0243543,-0.0614134 -0.0161142,-0.0168307 -0.0465512,-0.0252441 -0.091315,-0.0252441l-0.0680394 0 0 0.171882zm0.701512 0.0633819l-0.204118 -0.0214843c0.00770079,-0.0358071 0.0188031,-0.0639213 0.0333031,-0.0843307 0.0145039,-0.0205906 0.0352717,-0.038315 0.0626654,-0.0533543 0.0195157,-0.0109252 0.046374,-0.0193386 0.0805748,-0.0252441 0.0341969,-0.00590945 0.0712559,-0.00895669 0.111185,-0.00895669 0.0639213,0 0.11513,0.00358268 0.15398,0.0107441 0.0386732,0.00716535 0.0710827,0.0222008 0.0968661,0.0449409 0.0182598,0.0157598 0.0325866,0.0381378 0.0429685,0.0669646 0.0105669,0.0288268 0.0157559,0.0564016 0.0157559,0.0827205l0 0.246366c0,0.0263228 0.00161417,0.0469094 0.00501575,0.0617717 0.00322441,0.0148622 0.010563,0.0338425 0.0216654,0.056937l-0.199996 0c-0.00805512,-0.0143228 -0.013248,-0.0250669 -0.0157559,-0.0325827 -0.00232677,-0.00752362 -0.00483465,-0.0191575 -0.00734252,-0.0350945 -0.0279291,0.0268543 -0.055685,0.0460118 -0.083437,0.0574724 -0.0377756,0.0154016 -0.0816417,0.0230984 -0.131594,0.0230984 -0.0664291,0 -0.116917,-0.0154016 -0.151295,-0.046374 -0.0345591,-0.0307953 -0.051748,-0.068937 -0.051748,-0.114055 0,-0.0424331 0.0123543,-0.0773465 0.0372441,-0.10474 0.0248858,-0.0273976 0.0707244,-0.0478071 0.137508,-0.0610551 0.0800315,-0.0161181 0.131957,-0.0273937 0.155768,-0.0340197 0.0238189,-0.00644488 0.049063,-0.0148622 0.0755591,-0.0254252 0,-0.0263189 -0.00537008,-0.0445787 -0.0162913,-0.0551457 -0.0107402,-0.010563 -0.0297205,-0.0157559 -0.056937,-0.0157559 -0.0349134,0 -0.0610551,0.00555118 -0.0786024,0.0168307 -0.0136063,0.00894882 -0.0245315,0.0254252 -0.0329409,0.0497717zm0.184772 0.111728c-0.0293622,0.010563 -0.0599803,0.019874 -0.0920276,0.0281102 -0.0433307,0.0116378 -0.0709055,0.0230984 -0.0823622,0.034378 -0.0119961,0.0116378 -0.0179055,0.0248898 -0.0179055,0.039748 0,0.0170118 0.00590945,0.0309764 0.0175472,0.0417165 0.011815,0.0107441 0.0290039,0.0161181 0.0517441,0.0161181 0.023815,0 0.0460157,-0.00590945 0.0666063,-0.0175512 0.0204134,-0.0116378 0.0349134,-0.0257795 0.0435079,-0.0426142 0.00859449,-0.0168268 0.0128898,-0.0386732 0.0128898,-0.0655276l0 -0.034378zm0.275016 -0.292205l0.225244 0 0.114768 0.371165 0.105996 -0.371165 0.210378 0 -0.220587 0.596047c-0.0250669,0.0676811 -0.0508465,0.113335 -0.0769882,0.136972 -0.037063,0.0334803 -0.0934646,0.0501339 -0.169378,0.0501339 -0.0307992,0 -0.0782441,-0.00429921 -0.14252,-0.0125315l-0.0168307 -0.14915c0.0307913,0.00966535 0.0649921,0.0145039 0.102772,0.0145039 0.0252441,0 0.0456575,-0.00573228 0.0612362,-0.0171929 0.0155748,-0.0112756 0.0286457,-0.031689 0.0395669,-0.0610512l-0.233657 -0.557732zm0.730335 -0.211634l0.395335 0c0.086122,0 0.150579,0.0204094 0.193547,0.0614094 0.0427953,0.0410039 0.0642835,0.099374 0.0642835,0.17511 0,0.0777087 -0.0234606,0.138583 -0.070185,0.182272 -0.0467323,0.0438661 -0.118173,0.0657126 -0.214142,0.0657126l-0.13035 0 0 0.284681 -0.238488 0 0 -0.769185zm0.238488 0.328728l0.0585512 0c0.0461929,0 0.0786024,-0.00805512 0.0972244,-0.0239882 0.0186181,-0.015937 0.0279291,-0.0363504 0.0279291,-0.0612362 0,-0.0241732 -0.00805906,-0.0445827 -0.0243504,-0.0614134 -0.0161142,-0.0168307 -0.0465512,-0.0252441 -0.091315,-0.0252441l-0.0680394 0 0 0.171882zm0.701508 0.0633819l-0.204114 -0.0214843c0.00769685,-0.0358071 0.0187992,-0.0639213 0.0333031,-0.0843307 0.0145039,-0.0205906 0.0352717,-0.038315 0.0626654,-0.0533543 0.0195157,-0.0109252 0.046374,-0.0193386 0.0805748,-0.0252441 0.0341969,-0.00590945 0.0712559,-0.00895669 0.111185,-0.00895669 0.0639173,0 0.11513,0.00358268 0.15398,0.0107441 0.0386732,0.00716535 0.0710827,0.0222008 0.0968661,0.0449409 0.0182598,0.0157598 0.0325866,0.0381378 0.0429685,0.0669646 0.0105669,0.0288268 0.0157559,0.0564016 0.0157559,0.0827205l0 0.246366c0,0.0263228 0.00161417,0.0469094 0.00501575,0.0617717 0.00322441,0.0148622 0.010563,0.0338425 0.0216654,0.056937l-0.199996 0c-0.00805512,-0.0143228 -0.013252,-0.0250669 -0.0157559,-0.0325827 -0.00232677,-0.00752362 -0.00483465,-0.0191575 -0.00734252,-0.0350945 -0.0279291,0.0268543 -0.055685,0.0460118 -0.083437,0.0574724 -0.0377756,0.0154016 -0.0816417,0.0230984 -0.131598,0.0230984 -0.0664252,0 -0.116917,-0.0154016 -0.151291,-0.046374 -0.0345591,-0.0307953 -0.051748,-0.068937 -0.051748,-0.114055 0,-0.0424331 0.0123543,-0.0773465 0.0372402,-0.10474 0.0248898,-0.0273976 0.0707283,-0.0478071 0.137512,-0.0610551 0.0800315,-0.0161181 0.131957,-0.0273937 0.155768,-0.0340197 0.023815,-0.00644488 0.049063,-0.0148622 0.0755591,-0.0254252 0,-0.0263189 -0.00537402,-0.0445787 -0.0162913,-0.0551457 -0.0107441,-0.010563 -0.0297205,-0.0157559 -0.056937,-0.0157559 -0.0349134,0 -0.0610551,0.00555118 -0.0786024,0.0168307 -0.0136063,0.00894882 -0.0245315,0.0254252 -0.0329449,0.0497717zm0.184776 0.111728c-0.0293622,0.010563 -0.0599803,0.019874 -0.0920276,0.0281102 -0.0433307,0.0116378 -0.0709055,0.0230984 -0.0823622,0.034378 -0.0119961,0.0116378 -0.0179055,0.0248898 -0.0179055,0.039748 0,0.0170118 0.00590945,0.0309764 0.0175472,0.0417165 0.011815,0.0107441 0.0290039,0.0161181 0.0517441,0.0161181 0.023815,0 0.0460157,-0.00590945 0.0666024,-0.0175512 0.0204134,-0.0116378 0.0349173,-0.0257795 0.0435118,-0.0426142 0.00859449,-0.0168268 0.0128898,-0.0386732 0.0128898,-0.0655276l0 -0.034378zm0.343772 -0.503839l0.213783 0 0 0.769185 -0.213783 0 0 -0.769185z"/></g><rect class="fil1" height="6.82666" width="6.82666"/></svg>