<?xml version="1.0" ?><!DOCTYPE svg  PUBLIC '-//W3C//DTD SVG 1.1//EN'  'http://www.w3.org/Graphics/SVG/1.1/DTD/svg11.dtd'><svg enable-background="new 0 0 48 48" height="48px" id="Layer_4" version="1.1" viewBox="0 0 48 48" width="48px" xml:space="preserve" xmlns="http://www.w3.org/2000/svg" xmlns:xlink="http://www.w3.org/1999/xlink"><g><path d="M13.594,25.93c-0.045,0.479,0.234,0.639,0.741,0.65c0.253-0.004,1.047-0.074,1.478-0.791   c0.234-0.328,0.228-1.036,0.228-1.036l0.003-0.007c-0.085,0.016-0.167,0.034-0.262,0.042C14.859,24.867,13.797,24.835,13.594,25.93   z" fill="#241F20"/><path d="M8.604,20.815c-0.754-0.038-1.036,0.274-1.144,0.528l-0.068,0.308v0.001l-0.231,1.041   c0,0.004-0.019,0.324,0.043,0.396c0.096,0.128,0.294,0.289,0.733,0.289c0.792,0,1.458-0.312,1.771-0.938S9.854,20.877,8.604,20.815   z" fill="#241F20"/><path d="M35.594,25.93c-0.045,0.479,0.234,0.639,0.74,0.65c0.254-0.004,1.048-0.074,1.479-0.791   c0.234-0.328,0.228-1.036,0.228-1.036l0.003-0.007c-0.084,0.016-0.167,0.034-0.262,0.042C36.859,24.867,35.797,24.835,35.594,25.93   z" fill="#241F20"/><path d="M30.625,20.815c-0.755-0.038-1.036,0.274-1.145,0.528l-0.068,0.308v0.001l-0.23,1.041   c0,0.004-0.02,0.324,0.043,0.396c0.097,0.128,0.295,0.289,0.733,0.289c0.792,0,1.458-0.312,1.771-0.938   S31.875,20.877,30.625,20.815z" fill="#241F20"/><path d="M0,9v30h48V9H0z M10,24.544c-0.865,0.299-2.494,0.54-3.124,0.625c-0.267,0.037-0.329,0.293-0.331,0.303   l-0.524,2.362H3.688l2.146-8.645h1.271h0.833h1.104c0,0,2.354-0.167,3.021,1.583S11.083,24.168,10,24.544z M18.406,22.976   c-0.25,1.5-1.125,4.859-1.125,4.859h-1.707v-0.688c-1.597,0.719-1.781,0.7-2.465,0.688s-1.609-0.219-1.547-1.781   c0.062-1.562,1.609-1.984,2.703-2.203c1.068-0.214,1.944-0.264,1.985-0.266c0.328-0.404-0.063-0.744-0.063-0.744   s-1.031-0.615-2.281-0.162s-1.188,0.297-1.188,0.297s0.156-1.375,1.156-1.719s3,0,3,0S18.656,21.476,18.406,22.976z M20.688,30.814   h-0.542h-1.5l1.375-2.979l-1.062-6.437H21l0.708,3.77l0.014,0.088l2.215-3.92l2.333,0.062l-4.746,7.998L20.688,30.814z    M32.021,24.544c-0.864,0.299-2.493,0.54-3.124,0.625c-0.267,0.037-0.329,0.293-0.331,0.303l-0.524,2.362h-2.333l2.146-8.645h1.271   h0.833h1.104c0,0,2.354-0.167,3.021,1.583S33.104,24.168,32.021,24.544z M40.406,22.976c-0.25,1.5-1.125,4.859-1.125,4.859h-1.707   v-0.688c-1.597,0.719-1.78,0.7-2.465,0.688s-1.609-0.219-1.547-1.781c0.062-1.562,1.609-1.984,2.703-2.203   c1.068-0.214,1.944-0.264,1.984-0.266c0.328-0.404-0.062-0.744-0.062-0.744s-1.031-0.615-2.281-0.162s-1.188,0.297-1.188,0.297   s0.156-1.375,1.156-1.719s3,0,3,0S40.656,21.476,40.406,22.976z M42.562,27.835h-2.132l1.882-8.437h2L42.562,27.835z" fill="#241F20"/></g></svg>