<?xml version="1.0" standalone="no"?>
<!DOCTYPE svg PUBLIC "-//W3C//DTD SVG 20010904//EN"
 "http://www.w3.org/TR/2001/REC-SVG-20010904/DTD/svg10.dtd">
<svg version="1.0" xmlns="http://www.w3.org/2000/svg"
 width="104.000000pt" height="104.000000pt" viewBox="0 0 104.000000 104.000000"
 preserveAspectRatio="xMidYMid meet">
<metadata>
Created by potrace 1.11, written by Peter Selinger 2001-2013
</metadata>
<g transform="translate(0.000000,104.000000) scale(0.100000,-0.100000)"
fill="#000000" stroke="none">
<path d="M575 1033 c-22 -3 -44 -9 -49 -14 -6 -5 -23 -9 -38 -9 -15 0 -37 -9
-48 -20 -11 -11 -29 -20 -40 -20 -12 0 -31 -11 -43 -24 -12 -13 -32 -26 -44
-30 -11 -4 -23 -12 -26 -19 -3 -7 -30 -42 -61 -79 -31 -36 -56 -74 -56 -85 0
-11 -11 -30 -24 -42 -23 -22 -35 -56 -39 -113 -1 -14 -5 -29 -8 -32 -10 -11
-1 -166 11 -181 6 -8 13 -24 16 -37 13 -74 18 -95 30 -113 7 -11 16 -45 20
-75 9 -74 18 -88 62 -96 20 -3 47 -15 59 -26 26 -24 80 -18 126 14 26 19 33
19 92 8 36 -7 85 -9 113 -5 48 6 50 8 50 40 0 51 16 70 79 90 89 29 91 33 81
153 -3 33 0 43 14 48 21 6 23 26 7 56 -6 11 -15 34 -19 49 -8 27 -6 29 30 39
55 15 67 33 34 55 -33 22 -74 57 -137 118 l-49 47 39 39 c21 21 60 45 88 55
98 34 130 61 86 73 -12 3 -21 13 -21 24 0 11 -7 20 -15 20 -8 1 -20 2 -26 3
-5 0 -18 11 -27 24 -10 13 -29 24 -42 24 -14 1 -30 6 -37 11 -13 9 -122 37
-138 35 -5 -1 -28 -3 -50 -5z m-75 -268 c0 -2 -9 -9 -20 -15 -12 -6 -20 -7
-20 -1 0 5 8 12 18 14 9 3 18 5 20 6 1 0 2 -1 2 -4z m-50 -28 c0 -2 -13 -13
-30 -25 -16 -13 -30 -19 -30 -15 0 5 12 16 28 25 28 18 32 20 32 15z"/>
</g>
</svg>
