<?xml version="1.0" ?><!DOCTYPE svg  PUBLIC '-//W3C//DTD SVG 1.1//EN'  'http://www.w3.org/Graphics/SVG/1.1/DTD/svg11.dtd'><svg enable-background="new 0 0 48 48" height="48px" id="Layer_4" version="1.1" viewBox="0 0 48 48" width="48px" xml:space="preserve" xmlns="http://www.w3.org/2000/svg" xmlns:xlink="http://www.w3.org/1999/xlink"><g><path d="M41.871,22.22c-0.187,0.235-0.357,0.628-0.384,0.693c-0.163,0.524-0.418,1.555-0.256,2.5   c0.229,1.333,1.188,0.541,1.458,0s0.479-1.479,0.438-2.271c-0.038-0.715-0.078-0.87-0.33-1.093   C42.464,21.74,41.969,22.136,41.871,22.22z" fill="#241F20"/><path d="M14.434,21.801c-0.155-0.038-0.295-0.034-0.42-0.016c-0.526,0.12-0.785,0.543-0.793,0.556   c-0.231,0.398-0.323,0.885-0.323,0.885s0.943-0.062,1.398-0.354c0.311-0.199,0.446-0.41,0.44-0.635   C14.701,21.963,14.524,21.842,14.434,21.801z" fill="#241F20"/><path d="M0,9v30h48v-9.062V25.75V9H0z M8.271,25.435c-0.625,1.083-1.666,2.5-1.666,2.5H5.397H5.043H3.356   l-1.28-7.667l2.863-0.25l0.625,5.417c0,0,2.061-2.75,1.145-5.062c0,0,1.354-0.312,2.584-0.583   C10.189,22.476,8.896,24.351,8.271,25.435z M13.934,25.991c1.016,0.062,2.422-0.637,2.422-0.637l-0.281,2.215   c0,0-2.384,1.385-4.694,0.055c-0.045-0.006-0.089-0.015-0.134-0.055c-0.021-0.019-0.044-0.04-0.066-0.06   c-0.432-0.385-1-0.916-1.074-2.581c-0.078-1.75,0.812-3.141,0.812-3.141c0.656-0.891,1.438-1.609,2.828-1.906   c0.678-0.145,1.247-0.061,1.656,0.062v-0.001c0,0,0.213,0.043,0.478,0.188c0.13,0.065,0.205,0.115,0.205,0.115   c0.008,0.009,0.014,0.018,0.021,0.026c0.363,0.266,0.745,0.735,0.814,1.543c0.001,0.007,0,0.012,0.001,0.02   c0.157,1.106-0.66,1.909-1.358,2.242c-0.883,0.421-2.346,0.603-2.678,0.64C12.886,24.718,12.918,25.929,13.934,25.991z    M24.96,23.08l-0.792,4.854H21.45c0,0,0.822-5.104,0.822-5.148s0.062-0.727-0.646-0.727c-0.27,0-0.464,0.112-0.618,0.243   c-0.127,0.147-0.392,0.578-0.537,1.687l-0.511,3.946H17.23l1.208-7.958h2.479v0.562l-0.016,0.117l0.016-0.013   c0,0,1.479-1.125,3.104-0.667S24.96,23.08,24.96,23.08z M37.605,22.679c-0.094,0.516-0.797,5.255-0.797,5.255h-2.797   c0,0,0.578-3.537,0.734-4.552s-0.078-1.281-0.578-1.281c-0.086,0-0.152,0.021-0.222,0.039c-0.198,0.088-0.356,0.286-0.366,0.298   c-0.117,0.216-0.191,0.487-0.218,0.594c-0.007,0.031-0.012,0.048-0.012,0.048l-0.792,4.854h-2.718c0,0,0.822-5.104,0.822-5.148   s0.062-0.727-0.646-0.727c-0.27,0-0.464,0.112-0.618,0.243c-0.127,0.147-0.392,0.578-0.537,1.687l-0.511,3.946h-2.729l1.208-7.958   h2.479v0.562l-0.016,0.117l0.016-0.013c0,0,1.479-1.125,3.104-0.667c0.437,0.123,0.703,0.407,0.864,0.752l0.001-0.003   c0,0,0.671-0.484,1.155-0.656s1.875-0.438,2.625,0.125S37.699,22.164,37.605,22.679z M44.21,27.246   c-1.188,1.042-2.625,1.042-3.541,0.896s-2.292-0.729-2.271-3.833c0.021-3.104,2.604-4.125,2.604-4.125   c1.542-0.625,4.396-0.542,4.812,1.833S45.397,26.204,44.21,27.246z" fill="#241F20"/></g></svg>